Disc 3 Of 9

12.Slags                                 : 720x548 30m 30s
13.The Bullshitters                      : 720x544 40m 30s
14.The Supergrass                        : 720x502 93m 46s 
15.Consuela                              : 720x552 35m 52s

Note. Video/Audio Bitrate varies slightly in all 4 clips

Format                                   : MPEG-4
File size                                : 1.44 GiB
Duration                                 : 3h 20mn 41s
Overall bit rate mode                    : Variable
Overall bit rate                         : 1 063 Kbps

Video
Format settings, CABAC                   : Yes
Format settings, ReFrames                : 1 frame
Codec ID                                 : avc1
Duration                                 : 3h 20mn 41s
Bit rate mode                            : Variable
Bit rate                                 : 987 Kbps
Frame rate mode                          : Constant
Frame rate                               : 25.000 fps
Bit depth                                : 8 bits
Scan type                                : Progressive
Bits/(Pixel*Frame)                       : 0.100
Stream size                              : 1.34 GiB (93%)
Writing library                          : x264 core

Audio
Format                                   : AAC
Duration                                 : 3h 20mn 41s
Bit rate mode                            : Variable
Bit rate                                 : 72.0 Kbps
Maximum bit rate                         : 87.7 Kbps
Channel(s)                               : 2 channels
Channel positions                        : Front: L R
Sampling rate                            : 48.0 KHz
Compression mode                         : Lossy
Stream size                              : 100 MiB (7%)
Language                                 : English
Subtitles                                : None

IMDB.  http://www.imdb.com/title/tt0083402/

Screens.  http://bayimg.com/fANBeAAEc

          http://bayimg.com/faNBgaaeC

          http://bayimg.com/fANbjAaeC

          http://bayimg.com/faNbMaaEC  

Enjoy.